<?xml version="1.0" encoding="UTF-8"?> <svg xmlns="http://www.w3.org/2000/svg" width="1180" height="307" viewBox="0 0 1180 307" fill="none"><path d="M1153.09 25.3352L1153.08 25.3352V25.3295L1153.09 25.3352Z" fill="white"></path><path fill-rule="evenodd" clip-rule="evenodd" d="M1161.83 15.1208C1159.94 13.5437 1157.07 12.741 1153.18 12.741V12.7467H1141.59V42.5192H1148.14V30.5186H1150.52L1157.52 42.5192H1164.67L1157.28 30.236C1159.38 29.9929 1161.13 29.1846 1162.53 27.8223C1163.97 26.4544 1164.67 24.4986 1164.67 21.9775C1164.67 19.0042 1163.72 16.6979 1161.83 15.1208ZM1153.11 25.3634L1153.09 25.3352C1154.52 25.3346 1155.71 25.1254 1156.65 24.6681C1157.6 24.2103 1158.05 23.1985 1158.05 21.627C1158.05 20.7848 1157.88 20.1234 1157.53 19.6655C1157.18 19.2077 1156.72 18.8233 1156.16 18.5802C1155.6 18.3372 1154.97 18.1619 1154.31 18.0885C1153.64 18.0206 1153.01 17.9811 1152.41 17.9811H1148.11V25.3634H1153.11Z" fill="white"></path><path fill-rule="evenodd" clip-rule="evenodd" d="M1132.76 8.08327C1130.28 10.5704 1128.28 13.5098 1126.85 16.8675C1125.41 20.2251 1124.68 23.7976 1124.68 27.6414C1124.68 31.4852 1125.41 35.0577 1126.85 38.4154C1128.28 41.7731 1130.28 44.6785 1132.76 47.16C1135.25 49.6415 1138.19 51.5634 1141.55 52.9653C1144.91 54.3615 1148.49 55.0624 1152.34 55.0624C1156.19 55.0624 1159.76 54.3671 1163.12 52.9653C1166.49 51.5691 1169.43 49.6415 1171.91 47.16C1174.4 44.6785 1176.4 41.7731 1177.83 38.4154C1179.24 35.1284 1179.97 31.6356 1180 27.8838V27.3991C1179.97 23.6473 1179.24 20.1545 1177.83 16.8675C1176.4 13.5041 1174.4 10.5648 1171.91 8.08327C1169.43 5.60176 1166.48 3.60637 1163.12 2.1706C1159.77 0.734824 1156.19 0 1152.34 0C1148.49 0 1144.92 0.734824 1141.55 2.1706C1138.19 3.60637 1135.25 5.60176 1132.76 8.08327ZM1138.51 41.5695C1136.79 39.7833 1135.45 37.6862 1134.48 35.2725C1133.5 32.8588 1133.01 30.3038 1133.01 27.6471C1133.01 24.9903 1133.5 22.4353 1134.48 20.0217C1135.46 17.608 1136.79 15.5108 1138.51 13.7246C1140.22 11.9384 1142.29 10.5422 1144.63 9.49078C1146.98 8.43939 1149.58 7.9137 1152.34 7.9137C1155.1 7.9137 1157.7 8.43939 1160.04 9.49078C1162.42 10.5083 1164.45 11.9384 1166.17 13.7246C1167.89 15.5108 1169.22 17.608 1170.2 20.0217C1171.18 22.4353 1171.67 24.9903 1171.67 27.6471C1171.67 30.3038 1171.18 32.8588 1170.2 35.2725C1169.22 37.6862 1167.88 39.7833 1166.17 41.5695C1164.46 43.3558 1162.39 44.752 1160.04 45.8034C1157.7 46.8548 1155.1 47.3805 1152.34 47.3805C1149.58 47.3805 1147.01 46.8152 1144.63 45.8034C1142.25 44.7859 1140.23 43.3558 1138.51 41.5695Z" fill="white"></path><path d="M1092.66 307V277.736H1077.88C1060.64 277.736 1053.96 273.011 1053.96 249.326V129.637H1093.33V88.7345H1053.96V25.8997H1005.45V88.7345H978.72V129.637H1005.45V257.935C1005.45 281.422 1007.55 297.189 1015.4 307H1092.66Z" fill="white"></path><path d="M954.494 307C970.043 294.233 980.124 275.282 980.124 251.006C980.124 203.247 948.147 191.597 910.529 181.275L885.205 174.384C867.275 169.664 861.775 159.654 861.775 148.32C861.775 135.37 874.697 125.574 890.496 125.331C914.418 124.98 927.057 139.078 930.912 158.461L930.906 158.472H976.263C969.571 105.077 933.705 82.6871 892.938 82.6871C852.171 82.6871 815.604 109.385 815.604 151.576C815.604 193.767 839.141 211.856 874.657 220.883L902.785 228.197C919.279 232.923 929.019 241.108 929.019 257.902C929.019 274.696 917.843 283.022 899.597 282.881C871.226 282.638 861.633 266.087 858.83 243.697H812.071C814.48 271.689 825.45 293.068 842.116 307H954.494Z" fill="white"></path><path d="M794.809 307V88.7334H746.298V209.265C746.298 245.86 740.589 274.688 708.261 274.688C681.185 274.688 676.001 253.174 676.001 222.175V88.7334H627.49V235.086C627.49 266.827 630.246 291.449 642.208 307H734.986C739.429 302.173 743.253 296.445 746.298 289.843V307H794.809Z" fill="white"></path><path fill-rule="evenodd" clip-rule="evenodd" d="M604.167 307C604.306 303.789 604.376 300.485 604.376 297.086V88.7404H556.215V118.863C547.776 98.6439 525.991 83.5626 502.069 83.5626C448.408 83.5626 419.794 130.061 419.794 197.656C419.794 252.934 436.262 293.189 473.795 307H527.107C538.532 301.686 549.051 292.088 556.215 277.284V307H604.167ZM513.939 130.547C541.015 130.547 553.87 156.923 553.87 197.825C553.87 239.14 541.015 265.103 513.939 265.103C488.966 265.103 470.16 236.591 470.16 197.825C470.16 159.059 488.966 130.547 513.939 130.547Z" fill="white"></path><path d="M402.563 307V88.7334H354.052V209.265C354.052 245.86 348.342 274.688 316.015 274.688C288.939 274.688 283.755 253.174 283.755 222.175V88.7334H235.244V235.086C235.244 266.827 238 291.449 249.962 307H342.739C347.182 302.173 351.007 296.445 354.052 289.843V307H402.563Z" fill="white"></path><path fill-rule="evenodd" clip-rule="evenodd" d="M231.828 307L148.678 27.9971L148.627 27.8275H148.446V27.8218H87.0078L86.957 27.9914L87.1887 28.0593V28.0649L86.957 27.9971L4.03906 307H54.3897L68.1417 257.297H164.622L178.374 307H231.828ZM150.404 206.434L116.399 89.3758L82.3936 206.434H150.404ZM67.9585 257.056V257.054H67.956L67.9556 257.056L67.9585 257.056Z" fill="white"></path></svg> 